<?xml version="1.0" encoding="utf-8"?>
<!-- Generator: Adobe Illustrator 26.0.2, SVG Export Plug-In . SVG Version: 6.00 Build 0)  -->
<svg version="1.1" id="Layer_1" xmlns="http://www.w3.org/2000/svg" xmlns:xlink="http://www.w3.org/1999/xlink" x="0px" y="0px"
	 viewBox="0 0 142.9981 140.8891" style="enable-background:new 0 0 142.9981 140.8891;" xml:space="preserve">
<g id="Layer_1_00000101806119936603224620000014236841449702842247_">
	<path d="M38.08,126.8562c-1.1164-0.3256-2.2982-0.43-2.1317-1.9512c0.0651-0.5946-0.4684-0.456-0.7857-0.4988
		c-0.8409-0.1134-1.6942-0.143-2.5309-0.2775c-0.9769-0.157-1.8292-0.5038-1.3243-1.7587c0.2984-0.7415-0.2643-0.6336-0.633-0.7216
		c-0.7712-0.184-1.552-0.331-2.3179-0.534c-0.2983-0.0791-0.6387-0.2262-0.6647-0.5991s0.2931-0.5452,0.5746-0.6835
		c1.2902-0.6319,2.7374-0.8714,4.1624-0.6888c4.4784,0.5614,9.0031,0.6552,13.5009,0.28c5.2018-0.51,7.1571-2.3835,7.5867-7.53
		c0.022-0.2631,0.0474-0.5259,0.07-0.7889c0.3035-3.5892,0.2543-3.4677-3.0762-4.8022c-9.7527-3.908-19.3066-8.249-27.82-14.4864
		c-5.9849-4.3848-10.2544-10.0044-10.8549-17.6593c-0.5321-6.7845,0.6848-13.1537,4.692-18.9513
		c4.7579-6.8681,9.8977-13.4636,15.3952-19.7554c0.8828-0.9138,1.6284-1.9509,2.2134-3.0788
		c0.9251-2.0218,0.3694-3.4342-1.7652-4.0434c-2.8063-0.9245-5.8626-0.7173-8.5184,0.5774c-4.252,2.1656-8.3014,4.6825-12.3663,7.17
		c-1.4011,0.8583-2.9199,1.5077-4.5084,1.9277c-0.9956,0.2646-2.1224,0.6041-2.74-0.4551
		c-0.5398-1.0295-0.3525-2.2897,0.4632-3.1178c3.6293-3.9428,6.3789-8.5679,9.9517-12.545
		c1.1609-1.4571,1.8105-3.2555,1.8485-5.1181c0.1837-1.7953,0.9274-3.4873,2.1258-4.8366
		c5.3379-6.2693,12.244-7.9064,20.0962-6.7958c5.4531,0.7712,10.2234,2.7651,13.4246,7.506
		c2.3959,3.5483,3.3784,7.5586,3.9046,11.7423c0.5794,5.3717-0.0984,10.8046-1.98,15.8692
		c-0.9254,2.692-1.7015,5.4386-2.7262,8.0913c-0.5145,1.3317,0.0826,1.5792,1.105,1.6628c1.0564,0.0864,2.12,0.08,3.1795,0.1325
		c10.9455,0.5412,21.057,4.0677,30.881,8.5876c7.2522,3.2561,14.1786,7.1938,20.686,11.76c4.3757,3.13,9.2438,4.2843,14.4059,4.8556
		c2.8526,0.3157,5.5517,0.1851,8.0015-1.6186c1.1542-0.7686,2.4776-1.2459,3.8567-1.391c1.6217-0.2408,2.3832,0.3768,2.57,2.0079
		c0.1044,1.6552-0.456,3.2836-1.5568,4.524c-1.5442,2.099-3.4836,3.8761-5.7091,5.2315
		c-4.5553,2.7317-8.5693,6.2779-11.8418,10.4616c-7.9089,10.0431-18.9318,13.7662-30.84,15.9532
		c-5.0522,0.9718-10.1642,1.6007-15.3013,1.8825c-0.8991,0.0419-1.1452,0.5651-1.44,1.1956
		c-1.6325,3.3148-2.9551,6.7733-3.951,10.3315c-0.6219,2.6208-2.4669,4.7822-4.9576,5.8079
		c-5.6932,2.5622-11.7877,3.7261-17.8332,2.4223c-3.0512-0.6581-6.1183-1.164-9.1825-1.722c-0.56-0.102-1.3061-0.2091-1.4347-0.8269
		c-0.1561-0.75,0.6348-1.0227,1.1483-1.3325c0.8415-0.4626,1.7953-0.6816,2.7544-0.6323
		C36.6981,127.7237,37.5057,127.4367,38.08,126.8562z"/>
</g>
</svg>
