<?xml version="1.0" encoding="utf-8"?>
<!-- Generator: Adobe Illustrator 26.0.2, SVG Export Plug-In . SVG Version: 6.00 Build 0)  -->
<svg version="1.1" id="Layer_1" xmlns="http://www.w3.org/2000/svg" xmlns:xlink="http://www.w3.org/1999/xlink" x="0px" y="0px"
	 viewBox="0 0 1000 800" style="enable-background:new 0 0 1000 800;" xml:space="preserve">
<g>
	<path style="fill:#FFFFFF;" d="M455.8618,275.4531c-0.1797,15.8535-6.3701,29.0312-18.5669,39.5381
		c-12.2012,10.5107-29.2529,15.7617-51.1587,15.7617c-29.2114,0-52.9873-12.2891-71.3286-36.8672l26.7148-18.166
		c12.1094,15.8535,27.3364,23.9561,45.6821,24.3105c11.3955,0.1797,20.3452-2.0449,26.8481-6.6787
		c6.4995-4.6289,9.8389-10.7734,10.0181-18.4326c0.5347-6.4121-2.0493-11.6631-7.7471-15.7617
		c-5.7021-4.0947-17.2769-8.1904-34.729-12.2891c-24.4023-5.6978-40.7402-12.7314-49.022-21.1045
		c-8.2817-8.3696-12.5142-18.166-12.6895-29.3867c-0.3589-12.998,5.2095-24.5312,16.6968-34.5952
		c11.4873-10.0601,26.4019-15.0942,44.7471-15.0942c29.0273,1.4277,51.2925,12.7358,66.7871,33.9277l-25.3789,16.8306
		c-9.7969-11.3955-23.6011-17.8071-41.4082-19.2349c-9.6172,0-16.9219,1.7827-21.9058,5.3433
		c-4.9883,3.5645-7.3052,7.5718-6.9458,12.0215c-0.1797,4.9883,2.4917,9.083,8.0142,12.2891
		c5.5186,3.2056,13.4453,5.7896,23.7764,7.7471c24.9321,4.6333,43.0522,12.1553,54.3643,22.5742
		C449.9385,248.6045,455.6821,261.0273,455.8618,275.4531z"/>
	<path style="fill:#FFFFFF;" d="M615.6152,180.0811h-51.5586v147.4658h-31.2568V180.0811h-51.5596v-31.5234h134.375V180.0811z"/>
	<path style="fill:#FFFFFF;" d="M694.1543,252.2109h-59.3066v-32.0576h59.3066V252.2109z"/>
	<path style="fill:#FFFFFF;" d="M467.082,557.8291c0,27.9629-6.7246,50.5371-20.1699,67.7217
		c-13.4492,17.1895-31.3896,25.7803-53.8301,25.7803c-24.5776,0-43.8125-9.8848-57.7041-29.6533
		c-12.1138-17.0977-18.166-38.2021-18.166-63.3145c0-28.4932,6.7661-50.9795,20.3032-67.4551
		c13.5327-16.4707,32.0576-24.7109,55.5669-24.7109c22.0811,0,39.9385,8.415,53.563,25.2451
		C460.2695,508.2734,467.082,530.4043,467.082,557.8291z M435.291,558.3633c0-18.876-3.6982-33.6611-11.0864-44.3467
		c-7.3926-10.6855-17.7651-16.0283-31.1226-16.0283c-13.5371,0-24.1353,5.3428-31.791,16.0283
		c-7.6592,10.6855-11.4873,25.4707-11.4873,44.3467c0,19.0596,3.8281,33.9736,11.4873,44.7471
		c7.6558,10.7783,18.2539,16.1631,31.791,16.1631c15.3149,0,26.5352-6.6787,33.6606-20.0361
		C432.4404,588.7305,435.291,575.1055,435.291,558.3633z"/>
	<path style="fill:#FFFFFF;" d="M584.0898,577.8652h-51.292v70.2598h-32.0586V469.1357h82.2822
		c11.7539,0,21.9941,2.4961,30.7207,7.4805c18.3418,10.6855,27.5176,26.4473,27.5176,47.2852
		c0,22.4404-9.1758,38.5605-27.5176,48.3535C605.0156,575.9951,595.1309,577.8652,584.0898,577.8652z M609.2012,523.9014
		c0-6.9463-2.3164-12.4639-6.9453-16.5635c-4.6328-4.0947-10.8652-6.1445-18.7012-6.1445h-50.7568v44.6143h50.7568
		c7.8359,0,14.0684-2.0039,18.7012-6.0107C606.8848,535.7891,609.2012,530.4922,609.2012,523.9014z"/>
</g>
</svg>
