<?xml version="1.0" encoding="utf-8"?>
<!-- Generator: Adobe Illustrator 26.0.2, SVG Export Plug-In . SVG Version: 6.00 Build 0)  -->
<svg version="1.1" id="Layer_1" xmlns="http://www.w3.org/2000/svg" xmlns:xlink="http://www.w3.org/1999/xlink" x="0px" y="0px"
	 viewBox="0 0 1000 800" style="enable-background:new 0 0 1000 800;" xml:space="preserve">
<g>
	<path style="fill:#FFFFFF;" d="M298.6304,398.186c-11.312-10.4189-29.4321-17.9409-54.3643-22.5742
		c-10.3311-1.9575-18.2578-4.5415-23.7764-7.7471c-5.5225-3.2061-8.1938-7.3008-8.0142-12.2891
		c-0.3594-4.4497,1.9575-8.457,6.9458-12.0215c4.9839-3.5605,12.2886-5.3433,21.9058-5.3433
		c17.8071,1.4277,31.6113,7.8394,41.4082,19.2349l25.3789-16.8306c-15.4946-21.1919-37.7598-32.5-66.7871-33.9277
		c-18.3452,0-33.2598,5.0342-44.7471,15.0942c-11.4873,10.064-17.0557,21.5972-16.6968,34.5952
		c0.1753,11.2207,4.4077,21.0171,12.6895,29.3867c8.2817,8.373,24.6196,15.4062,49.022,21.1045
		c17.4521,4.0986,29.0269,8.1943,34.729,12.2891c5.6978,4.0986,8.2817,9.3496,7.7471,15.7617
		c-0.1792,7.6592-3.5186,13.8037-10.0181,18.4326c-6.5029,4.6338-15.4526,6.8584-26.8481,6.6787
		c-18.3457-0.3545-33.5728-8.457-45.6821-24.3105l-26.7148,18.166c18.3413,24.5781,42.1172,36.8672,71.3286,36.8672
		c21.9058,0,38.9575-5.251,51.1587-15.7617c12.1968-10.5068,18.3872-23.6846,18.5669-39.5381
		C315.6821,421.0273,309.9385,408.6045,298.6304,398.186z"/>
	<path style="fill:#FFFFFF;" d="M578.999,305.6191c-23.5088,0-42.0342,8.2397-55.5674,24.7109
		c-13.5361,16.4756-20.3027,38.9619-20.3027,67.4551c0,25.1123,6.0527,46.2168,18.166,63.3145
		c13.8916,19.7686,33.126,29.6533,57.7041,29.6533c22.4404,0,40.3809-8.5908,53.8301-25.7803
		c13.4453-17.1846,20.1699-39.7588,20.1699-67.7217c0-27.4243-6.8125-49.5562-20.4375-66.3862
		C618.9375,314.0342,601.0801,305.6191,578.999,305.6191z M612.6592,438.6592c-7.125,13.3574-18.3457,20.0361-33.6602,20.0361
		c-13.5371,0-24.1357-5.3848-31.791-16.1631c-7.6592-10.7734-11.4873-25.6875-11.4873-44.7471
		c0-18.8755,3.8281-33.6606,11.4873-44.3467c7.6553-10.686,18.2539-16.0288,31.791-16.0288c13.3574,0,23.7305,5.3428,31.123,16.0288
		c7.3877,10.686,11.0859,25.4712,11.0859,44.3467C621.208,414.5273,618.3574,428.1523,612.6592,438.6592z"/>
	<path style="fill:#FFFFFF;" d="M799.6592,316.0381c-8.7275-4.9844-18.9668-7.4805-30.7217-7.4805h-82.2812v178.9893h32.0576
		v-70.2598h51.292c11.041,0,20.9258-1.8701,29.6533-5.6104c18.3418-9.792,27.5166-25.9131,27.5166-48.3535
		C827.1758,342.4854,818.001,326.7236,799.6592,316.0381z M788.1719,379.2183c-4.6328,4.0073-10.8652,6.0107-18.7002,6.0107
		h-50.7578v-44.6138h50.7578c7.835,0,14.0674,2.0498,18.7002,6.1445c4.6299,4.0991,6.9463,9.6172,6.9463,16.5635
		C795.1182,369.9141,792.8018,375.2109,788.1719,379.2183z"/>
	<polygon style="fill:#FFFFFF;" points="424.3323,257.7611 392.3324,257.7611 392.3324,308.5576 341.2402,308.5576 
		341.2402,340.0811 392.7998,340.0811 392.7998,487.5469 424.0562,487.5469 424.0562,340.0811 475.6152,340.0811 475.6152,308.5576 
		424.3323,308.5576 	"/>
</g>
</svg>
