<?xml version="1.0" encoding="utf-8"?>
<!-- Generator: Adobe Illustrator 26.0.2, SVG Export Plug-In . SVG Version: 6.00 Build 0)  -->
<svg version="1.1" id="Layer_1" xmlns="http://www.w3.org/2000/svg" xmlns:xlink="http://www.w3.org/1999/xlink" x="0px" y="0px"
	 viewBox="0 0 1000 800" style="enable-background:new 0 0 1000 800;" xml:space="preserve">
<g>
	<path style="fill:none;" d="M699.165,195.1655c0.4414-6.1074-1.667-11.4907-6.3271-16.1509
		c-4.9121-4.9121-10.4521-7.1763-16.624-6.8008c-6.1719,0.3804-12.0273,3.3384-17.5684,8.8784l-35.8906,35.8911l31.5469,31.5469
		l35.8906-35.8911C695.7334,207.0991,698.7236,201.2749,699.165,195.1655z"/>
	<path style="fill:none;" d="M515.7168,447.627l35.5137,35.5127l17.0671-41.3752c-7.5428-1.2923-14.8901-3.5428-22.0456-6.7335
		L515.7168,447.627z"/>
	<path style="fill:none;" d="M617.0908,361.3027c-3.4004-11.4585-11.0195-23.1089-22.8574-34.9473
		c-13.3477-13.3472-26.417-21.1865-39.1973-23.5186c-10.8225-1.9719-20.4432,0.2925-28.873,6.7598l3.1562,3.1562l-18.0911,18.0911
		c-1.4097,5.1502-1.6434,10.6415-0.6785,16.4797c2.1396,12.9722,9.8877,26.1333,23.2344,39.4805
		c4.853,4.8529,9.6765,8.9628,14.4716,12.3538l47.9327-19.5359l15.1978,15.1984
		C618.9987,385.0176,620.907,373.8466,617.0908,361.3027z"/>
	<path style="fill:#FFFFFF;" d="M326.6279,289.5186c10.0737-10.3281,14.7964-23.1738,14.1675-38.5371
		c-0.6313-15.3652-8.1255-33.4971-22.479-54.4033c-5.9214-8.6885-9.6992-16.1211-11.334-22.29
		c-1.6387-6.1719-0.6318-10.9561,3.0225-14.3564c2.8921-3.4014,7.3643-4.5957,13.4116-3.5889
		c6.042,1.0059,12.4678,4.9102,19.2681,11.7109c11.582,13.6016,16.8091,27.8965,15.6792,42.8809l29.8462,6.0449
		c4.0288-25.9414-3.7192-49.6816-23.2349-71.2168c-12.9717-12.9707-27.0781-19.957-42.314-20.9668
		c-15.2393-1.0068-27.332,3.2109-36.269,12.6562c-7.8105,8.0586-11.7446,17.9775-11.8071,29.752
		c-0.064,11.7773,6.5146,28.3027,19.7412,49.5869c9.4419,15.2393,14.7305,26.3193,15.8672,33.2471
		c1.1309,6.9268-0.7554,12.4668-5.667,16.623c-5.543,5.2891-12.249,7.2725-20.1182,5.9502
		c-7.8745-1.3213-15.7764-6.0771-23.7065-14.2627c-12.7222-13.2227-17.7598-29.7188-15.1123-49.4922l-31.7354-6.0449
		c-4.4102,30.3496,3.7119,55.8516,24.3677,76.5068c15.4897,15.4893,31.2603,23.833,47.3198,25.0283
		C301.5952,305.542,315.291,300.6016,326.6279,289.5186z"/>
	<path style="fill:#FFFFFF;" d="M526.1631,309.5967c-1.5272,1.1717-3.0201,2.4648-4.4688,3.9135
		c-5.2626,5.2629-8.7443,11.0432-10.4661,17.3337l18.0911-18.0911L526.1631,309.5967z"/>
	<path style="fill:#FFFFFF;" d="M503.5724,287.006l-69.2706-69.2706l-22.29,22.29l36.458,36.458L344.1953,380.7578l22.1016,22.1016
		L470.5713,298.585l13.3073,13.3073c3.6511-7.3132,8.7471-14.2714,15.3372-20.8615
		C500.6404,289.6061,502.0984,288.2819,503.5724,287.006z"/>
	<path style="fill:#FFFFFF;" d="M548.2557,399.158c8.5214,6.0262,16.952,9.7557,25.2921,11.1643
		c13.0352,2.209,24.3369-1.4785,33.9082-11.0503c1.4503-1.4502,2.7531-2.9358,3.9302-4.4515l-15.1978-15.1984L548.2557,399.158z"/>
	<path style="fill:#FFFFFF;" d="M568.3545,441.7754c-0.019-0.0032-0.0379-0.0077-0.0569-0.011l-17.0671,41.3752l-35.5137-35.5127
		l30.5352-12.5961c-11.1978-4.9933-21.9236-12.301-32.1746-21.9429l-79.5179,32.409l24.7395,24.7395l23.9266-9.7639l55.1592,55.1592
		l-17.3789,41.9365l24.5566,24.5566l58.7568-143.1248C593.279,443.1042,581.2922,444.0341,568.3545,441.7754z"/>
	<polygon style="fill:#FFFFFF;" points="783.0098,566.4434 694.9805,581.5557 709.7158,493.1494 681.7588,465.1924 
		660.0352,593.4561 608.4639,645.0264 631.1328,667.6953 682.7031,616.124 810.9668,594.4014 	"/>
	<path style="fill:#FFFFFF;" d="M366.4189,554.7363c-15.3652,0.6309-33.4971,8.125-54.4033,22.4785
		c-8.6885,5.9219-16.1211,9.6992-22.29,11.334c-6.1719,1.6387-10.9561,0.6318-14.3564-3.0225
		c-3.4014-2.8916-4.5957-7.3643-3.5889-13.4111c1.0059-6.043,4.9102-12.4688,11.7109-19.2686
		c13.6016-11.582,27.8965-16.8096,42.8809-15.6787l6.0449-29.8467c-25.9414-4.0283-49.6816,3.7197-71.2168,23.2354
		c-12.9707,12.9707-19.957,27.0781-20.9668,42.3135c-1.0068,15.2393,3.2109,27.332,12.6562,36.2686
		c8.0586,7.8105,17.9775,11.7451,29.752,11.8076c11.7773,0.0635,28.3027-6.5146,49.5869-19.7412
		c15.2393-9.4414,26.3193-14.7305,33.2471-15.8672c6.9268-1.1309,12.4668,0.7559,16.623,5.667
		c5.2891,5.543,7.2725,12.249,5.9502,20.1182c-1.3213,7.875-6.0771,15.7764-14.2627,23.707
		c-13.2227,12.7217-29.7188,17.7598-49.4922,15.1113l-6.0449,31.7363c30.3496,4.4102,55.8516-3.7129,76.5068-24.3682
		c15.4893-15.4893,23.833-31.2607,25.0283-47.3193c1.1953-16.0547-3.7451-29.75-14.8281-41.0869
		C394.6279,558.8301,381.7822,554.1074,366.4189,554.7363z"/>
	<polygon style="fill:#FFFFFF;" points="416.354,452.917 434.5595,445.497 414.0225,424.96 450.4805,388.502 428.1904,366.2119 
		333.1729,461.2295 355.4629,483.5195 391.9209,447.0615 496.1953,551.3359 518.2969,529.2344 459.299,470.2365 441.1001,477.6631 	
		"/>
	<path style="fill:#FFFFFF;" d="M546.252,435.0309c7.1555,3.1907,14.5027,5.4412,22.0456,6.7335l7.8675-19.073L546.252,435.0309z"/>
	<path style="fill:#FFFFFF;" d="M533.7842,386.8042c-13.3467-13.3472-21.0947-26.5083-23.2344-39.4805
		c-0.965-5.8383-0.7312-11.3295,0.6785-16.4797l-4.199,4.199l-23.1507-23.1507c-5.5585,11.1339-7.7358,23.0987-6.4821,35.9036
		c2.0791,21.2217,13.1943,41.9062,33.3428,62.0537c1.1071,1.1072,2.2198,2.1865,3.3381,3.2384l34.1783-13.9301
		C543.4607,395.767,538.6372,391.6571,533.7842,386.8042z"/>
	<path style="fill:#FFFFFF;" d="M555.0361,302.8369c12.7803,2.332,25.8496,10.1714,39.1973,23.5186
		c11.8379,11.8384,19.457,23.4888,22.8574,34.9473c3.8162,12.5438,1.9078,23.7148-5.7046,33.5177l7.8481,7.8485l-14.915,36.3312
		c9.2699-3.4459,17.8732-9.1273,25.8057-17.0598c15.8682-15.8682,22.4795-34.6284,19.835-56.2935
		c-2.6445-21.6587-13.8516-42.376-33.625-62.1489c-19.3916-19.3916-39.8594-30.2241-61.3936-32.4902
		c-19.5702-2.0607-36.6888,3.2913-51.369,15.9982l22.5908,22.5908C534.593,303.1294,544.2136,300.8651,555.0361,302.8369z"/>
	<path style="fill:#FFFFFF;" d="M726.6514,320.8799l-49.6816-49.6812l36.2695-36.269c7.8066-7.8071,13.4746-16.1196,17-24.9351
		c6.0459-19.894,1.1348-37.7808-14.7324-53.6484c-14.7354-14.7349-32.3682-19.3921-52.8945-13.9785
		c-9.6953,2.6465-18.6992,8.1221-27.0117,16.4341l-58.1816,58.1816l126.5645,126.5645L726.6514,320.8799z M622.7549,216.9834
		l35.8906-35.8911c5.541-5.54,11.3965-8.498,17.5684-8.8784c6.1719-0.3755,11.7119,1.8887,16.624,6.8008
		c4.6602,4.6602,6.7686,10.0435,6.3271,16.1509c-0.4414,6.1094-3.4316,11.9336-8.9727,17.4736l-35.8906,35.8911L622.7549,216.9834z"
		/>
</g>
</svg>
