<?xml version="1.0" encoding="utf-8"?>
<!-- Generator: Adobe Illustrator 26.0.2, SVG Export Plug-In . SVG Version: 6.00 Build 0)  -->
<svg version="1.1" id="Layer_1" xmlns="http://www.w3.org/2000/svg" xmlns:xlink="http://www.w3.org/1999/xlink" x="0px" y="0px"
	 viewBox="0 0 1000 800" style="enable-background:new 0 0 1000 800;" xml:space="preserve">
<g>
	<path style="fill:#FFFFFF;" d="M315.8618,435.4531c-0.1797,15.8535-6.3701,29.0312-18.5669,39.5381
		c-12.2012,10.5107-29.2529,15.7617-51.1587,15.7617c-29.2114,0-52.9873-12.2891-71.3286-36.8672l26.7148-18.166
		c12.1094,15.8535,27.3364,23.9561,45.6821,24.3105c11.3955,0.1797,20.3452-2.0449,26.8481-6.6787
		c6.4995-4.6289,9.8389-10.7734,10.0181-18.4326c0.5347-6.4121-2.0493-11.6631-7.7471-15.7617
		c-5.7021-4.0947-17.2769-8.1904-34.729-12.2891c-24.4023-5.6982-40.7402-12.7314-49.022-21.1045
		c-8.2817-8.3696-12.5142-18.166-12.6895-29.3867c-0.3589-12.998,5.2095-24.5312,16.6968-34.5952
		c11.4873-10.0601,26.4019-15.0942,44.7471-15.0942c29.0273,1.4277,51.2925,12.7358,66.7871,33.9277l-25.3789,16.8306
		c-9.7969-11.3955-23.6011-17.8071-41.4082-19.2349c-9.6172,0-16.9219,1.7827-21.9058,5.3433
		c-4.9883,3.5645-7.3052,7.5718-6.9458,12.0215c-0.1797,4.9883,2.4917,9.083,8.0142,12.2891
		c5.5186,3.2056,13.4453,5.7896,23.7764,7.7471c24.9321,4.6333,43.0522,12.1553,54.3643,22.5742
		C309.9385,408.6045,315.6821,421.0273,315.8618,435.4531z"/>
	<path style="fill:#FFFFFF;" d="M475.6152,340.0811h-51.5591v147.4658h-31.2563V340.0811h-51.5596v-31.5234h134.375V340.0811z"/>
	<path style="fill:#FFFFFF;" d="M655.6699,397.251c-0.5342,27.249-6.8574,50.0488-18.9668,68.3896l16.5625,23.5088l-25.3789,19.2354
		l-15.2275-21.9062c-10.8652,3.0264-21.1963,4.4492-30.9893,4.2744c-24.5771,0-43.3691-9.2168-56.3682-27.6504
		c-13.002-18.4326-19.502-40.2051-19.502-65.3174c0-28.4932,6.7666-50.9795,20.3037-67.4551
		c13.5332-16.4712,32.0576-24.7109,55.5664-24.7109c22.082,0,39.9395,8.415,53.5635,25.2456
		C648.8584,347.6948,655.6699,369.8267,655.6699,397.251z M623.8799,397.7852c0-18.8755-3.6982-33.6606-11.0869-44.3467
		c-7.3926-10.686-17.7656-16.0288-31.123-16.0288c-13.5361,0-24.1348,5.3428-31.79,16.0288
		c-7.6602,10.686-11.4873,25.4712-11.4873,44.3467c0,19.0596,3.8271,33.9736,11.4873,44.7471
		c7.6553,10.7783,18.2539,16.1631,31.79,16.1631c4.8086,0.1787,9.2588-0.71,13.3574-2.6719l-18.166-25.9131l24.3105-19.2354
		l15.4951,22.4404C621.6504,424.4121,624.0547,412.5703,623.8799,397.7852z"/>
	<path style="fill:#FFFFFF;" d="M775.6191,417.2871h-51.292v70.2598h-32.0576V308.5576h82.2812
		c11.7549,0,21.9941,2.4961,30.7217,7.4805c18.3418,10.6855,27.5166,26.4473,27.5166,47.2852
		c0,22.4404-9.1748,38.5615-27.5166,48.3535C796.5449,415.417,786.6602,417.2871,775.6191,417.2871z M800.7314,363.3232
		c0-6.9463-2.3164-12.4644-6.9463-16.5635c-4.6328-4.0947-10.8652-6.1445-18.7002-6.1445h-50.7578v44.6138h50.7578
		c7.835,0,14.0674-2.0034,18.7002-6.0107C798.415,375.2109,800.7314,369.9141,800.7314,363.3232z"/>
</g>
</svg>
